<svg xmlns="http://www.w3.org/2000/svg" width="15" height="15" viewBox="0 0 15 15" fill="none">
  <path d="M5.52647 5.46672C5.68321 5.02116 5.99257 4.64545 6.39977 4.40614C6.80698 4.16682 7.28574 4.07934 7.75126 4.15919C8.21678 4.23904 8.63902 4.48107 8.94319 4.8424C9.24736 5.20374 9.41384 5.66106 9.41314 6.13338C9.41314 7.46672 7.41314 8.13338 7.41314 8.13338M7.46647 10.8H7.47314M14.1331 7.46672C14.1331 11.1486 11.1484 14.1334 7.46647 14.1334C3.78457 14.1334 0.799805 11.1486 0.799805 7.46672C0.799805 3.78482 3.78457 0.800049 7.46647 0.800049C11.1484 0.800049 14.1331 3.78482 14.1331 7.46672Z" stroke="white" stroke-opacity="0.69" stroke-width="1.6" stroke-linecap="round" stroke-linejoin="round"/>
</svg>