<svg xmlns="http://www.w3.org/2000/svg" width="56" height="16" viewBox="0 0 56 16" fill="none">
  <rect x="0.25" y="0.25" width="55" height="15.5" rx="7.75" stroke="white" stroke-opacity="0.16" stroke-width="0.5"/>
  <path d="M38.1036 8.35355C38.2988 8.15829 38.2988 7.84171 38.1036 7.64645L34.9216 4.46447C34.7263 4.2692 34.4097 4.2692 34.2145 4.46447C34.0192 4.65973 34.0192 4.97631 34.2145 5.17157L37.0429 8L34.2145 10.8284C34.0192 11.0237 34.0192 11.3403 34.2145 11.5355C34.4097 11.7308 34.7263 11.7308 34.9216 11.5355L38.1036 8.35355ZM17.75 8V8.5H37.75V8V7.5H17.75V8Z" fill="#C5C5C5"/>
  <path d="M17.3964 7.64645C17.2012 7.84171 17.2012 8.15829 17.3964 8.35356L20.5784 11.5355C20.7737 11.7308 21.0903 11.7308 21.2855 11.5355C21.4808 11.3403 21.4808 11.0237 21.2855 10.8284L18.4571 8L21.2855 5.17157C21.4808 4.97631 21.4808 4.65973 21.2855 4.46447C21.0903 4.26921 20.7737 4.26921 20.5784 4.46447L17.3964 7.64645ZM37.75 8L37.75 7.5L17.75 7.5L17.75 8L17.75 8.5L37.75 8.5L37.75 8Z" fill="#C5C5C5"/>
</svg>