<svg xmlns="http://www.w3.org/2000/svg" width="42" height="47" viewBox="0 0 42 47" fill="none">
  <g clip-path="url(#clip0_253_33894)">
    <path fill-rule="evenodd" clip-rule="evenodd" d="M18.7937 0.135348C18.6291 0.0985201 18.4586 0.0985202 18.294 0.135348L1.69601 3.84973C1.24071 3.95166 0.833508 4.20686 0.541635 4.57324C0.249762 4.93962 0.0906562 5.39526 0.0905762 5.86496V16.102C0.0905762 16.7425 0.606255 17.2619 1.24238 17.2619H6.51577C7.1519 17.2619 7.66757 16.7425 7.66757 16.102V11C7.66757 10.3594 8.18325 9.84007 8.81937 9.84007H13.8944C14.5306 9.84007 15.0462 10.3594 15.0462 11V16.102C15.0462 16.7425 15.5619 17.2619 16.198 17.2619H20.8898C21.5259 17.2619 22.0416 16.7425 22.0416 16.102V11C22.0416 10.3594 22.5572 9.84007 23.1934 9.84007H28.2684C28.9046 9.84007 29.4202 10.3594 29.4202 11V16.102C29.4202 16.7425 29.9359 17.2619 30.572 17.2619H35.8453C36.4815 17.2619 36.9971 16.7425 36.9971 16.102V5.86496C36.997 5.39526 36.8379 4.93962 36.5461 4.57324C36.2542 4.20686 35.8471 3.95166 35.3918 3.84973L18.7937 0.135348ZM0.0905762 26.4881V22.0367C0.0905762 21.3961 0.606255 20.8768 1.24238 20.8768H11.1486L11.1488 20.8766L11.149 20.8764H13.9533C14.5894 20.8764 15.1051 21.3958 15.1051 22.0363V23.863C15.1051 24.5036 14.5894 25.0229 13.9533 25.0229H12.365C11.7288 25.0229 11.2132 25.5423 11.2132 26.1828V32.4408C11.2132 33.0814 11.7288 33.6007 12.365 33.6007H13.5111C14.1473 33.6007 14.6629 33.0814 14.6629 32.4408V29.2386C14.6629 28.5979 15.1786 28.0787 15.8147 28.0787H20.8898C21.5259 28.0787 22.0416 28.5979 22.0416 29.2386V32.4408C22.0416 33.0814 22.5572 33.6007 23.1934 33.6007H24.3395C24.9757 33.6007 25.4913 33.0814 25.4913 32.4408V26.1828C25.4913 25.5423 24.9757 25.0229 24.3395 25.0229H23.1345C22.4984 25.0229 21.9827 24.5036 21.9827 23.863V22.0363C21.9827 21.3958 22.4984 20.8764 23.1345 20.8764H25.8029L25.803 20.8766L25.8032 20.8768H35.8453C36.4815 20.8768 36.9971 21.3961 36.9971 22.0367V24.6295C36.9971 25.3466 36.3525 25.8857 35.6403 25.8857C31.295 25.8857 27.76 29.4205 27.76 33.7945V33.7959V33.7972C27.7627 34.4209 27.844 35.0399 28.001 35.6397C28.1164 36.0808 28.0206 36.5602 27.6997 36.8821L21.1108 43.4898L21.109 43.4918C20.9937 43.6093 20.8885 43.7353 20.7941 43.8686C20.6936 44.0102 20.5761 44.1403 20.4323 44.2368L19.1828 45.0757C18.7959 45.3355 18.2918 45.3354 17.9049 45.0757L5.56915 36.7933C3.88431 35.6623 2.50274 34.13 1.54705 32.3324C0.591348 30.5346 0.0910608 28.5272 0.0905762 26.4881ZM35.6592 28.7396C36.2834 28.7418 36.6799 29.3603 36.4967 29.9612C36.4082 30.2514 36.3077 30.539 36.195 30.8252C35.9238 31.5137 34.8832 31.496 34.3 31.9473C33.8132 32.3238 33.4487 33.2257 33.069 34.165C32.6385 35.2303 32.1884 36.3438 31.5186 36.7933L31.41 36.8663C31.3773 36.8882 31.3336 36.8596 31.338 36.8202C31.3742 36.4998 31.301 36.1763 31.1307 35.9031L31.1297 35.9016C31.111 35.8699 31.0936 35.8376 31.0774 35.8045L31.0758 35.8014L31.0743 35.7983C30.762 35.1763 30.5976 34.4898 30.5939 33.7929C30.5948 31.0078 32.8489 28.7396 35.6413 28.7396C35.6472 28.7396 35.6532 28.7396 35.6592 28.7396Z" fill="white"/>
    <mask id="mask0_253_33894" style="mask-type:alpha" maskUnits="userSpaceOnUse" x="0" y="0" width="37" height="46">
      <path fill-rule="evenodd" clip-rule="evenodd" d="M18.7937 0.135348C18.6291 0.0985201 18.4586 0.0985202 18.294 0.135348L1.69601 3.84973C1.24071 3.95166 0.833508 4.20686 0.541635 4.57324C0.249762 4.93962 0.0906562 5.39526 0.0905762 5.86496V16.102C0.0905762 16.7425 0.606255 17.2619 1.24238 17.2619H6.51577C7.1519 17.2619 7.66757 16.7425 7.66757 16.102V11C7.66757 10.3594 8.18325 9.84007 8.81937 9.84007H13.8944C14.5306 9.84007 15.0462 10.3594 15.0462 11V16.102C15.0462 16.7425 15.5619 17.2619 16.198 17.2619H20.8898C21.5259 17.2619 22.0416 16.7425 22.0416 16.102V11C22.0416 10.3594 22.5572 9.84007 23.1934 9.84007H28.2684C28.9046 9.84007 29.4202 10.3594 29.4202 11V16.102C29.4202 16.7425 29.9359 17.2619 30.572 17.2619H35.8453C36.4815 17.2619 36.9971 16.7425 36.9971 16.102V5.86496C36.997 5.39526 36.8379 4.93962 36.5461 4.57324C36.2542 4.20686 35.8471 3.95166 35.3918 3.84973L18.7937 0.135348ZM0.0905762 26.4881V22.0367C0.0905762 21.3961 0.606255 20.8768 1.24238 20.8768H11.1486L11.1488 20.8766L11.149 20.8764H13.9533C14.5894 20.8764 15.1051 21.3958 15.1051 22.0363V23.863C15.1051 24.5036 14.5894 25.0229 13.9533 25.0229H12.365C11.7288 25.0229 11.2132 25.5423 11.2132 26.1828V32.4408C11.2132 33.0814 11.7288 33.6007 12.365 33.6007H13.5111C14.1473 33.6007 14.6629 33.0814 14.6629 32.4408V29.2386C14.6629 28.5979 15.1786 28.0787 15.8147 28.0787H20.8898C21.5259 28.0787 22.0416 28.5979 22.0416 29.2386V32.4408C22.0416 33.0814 22.5572 33.6007 23.1934 33.6007H24.3395C24.9757 33.6007 25.4913 33.0814 25.4913 32.4408V26.1828C25.4913 25.5423 24.9757 25.0229 24.3395 25.0229H23.1345C22.4984 25.0229 21.9827 24.5036 21.9827 23.863V22.0363C21.9827 21.3958 22.4984 20.8764 23.1345 20.8764H25.8029L25.803 20.8766L25.8032 20.8768H35.8453C36.4815 20.8768 36.9971 21.3961 36.9971 22.0367V24.6295C36.9971 25.3466 36.3525 25.8857 35.6403 25.8857C31.295 25.8857 27.76 29.4205 27.76 33.7945V33.7959V33.7972C27.7627 34.4209 27.844 35.0399 28.001 35.6397C28.1164 36.0808 28.0206 36.5602 27.6997 36.8821L21.1108 43.4898L21.109 43.4918C20.9937 43.6093 20.8885 43.7353 20.7941 43.8686C20.6936 44.0102 20.5761 44.1403 20.4323 44.2368L19.1828 45.0757C18.7959 45.3355 18.2918 45.3354 17.9049 45.0757L5.56915 36.7933C3.88431 35.6623 2.50274 34.13 1.54705 32.3324C0.591348 30.5346 0.0910608 28.5272 0.0905762 26.4881ZM35.6592 28.7396C36.2834 28.7418 36.6799 29.3603 36.4967 29.9612C36.4082 30.2514 36.3077 30.539 36.195 30.8252C35.9238 31.5137 34.8832 31.496 34.3 31.9473C33.8132 32.3238 33.4487 33.2257 33.069 34.165C32.6385 35.2303 32.1884 36.3438 31.5186 36.7933L31.41 36.8663C31.3773 36.8882 31.3336 36.8596 31.338 36.8202C31.3742 36.4998 31.301 36.1763 31.1307 35.9031L31.1297 35.9016C31.111 35.8699 31.0936 35.8376 31.0774 35.8045L31.0758 35.8014L31.0743 35.7983C30.762 35.1763 30.5976 34.4898 30.5939 33.7929C30.5948 31.0078 32.8489 28.7396 35.6413 28.7396C35.6472 28.7396 35.6532 28.7396 35.6592 28.7396Z" fill="#EEB963"/>
    </mask>
    <g mask="url(#mask0_253_33894)">
      <path d="M18.544 -11.0191H0.115234V51.0356H18.544V-11.0191Z" fill="white"/>
    </g>
    <path fill-rule="evenodd" clip-rule="evenodd" d="M41.5034 34.1939C41.5034 37.3999 38.9115 39.999 35.7151 39.999C35.1325 39.999 33.8045 39.8643 33.1588 39.3238L32.351 40.1337C31.8757 40.6105 32.0039 40.7507 32.2155 40.9812C32.3035 41.078 32.406 41.1897 32.4857 41.3492C32.4857 41.3492 33.1588 42.2937 32.4857 43.2391C32.0818 43.7786 30.9507 44.534 29.6593 43.2391L29.39 43.5084C29.39 43.5084 30.1969 44.4537 29.5246 45.3991C29.1208 45.9387 28.0437 46.4782 27.1013 45.5338L26.1598 46.4782C25.5131 47.1266 24.7237 46.7485 24.4104 46.4782L23.6017 45.6685C22.848 44.9121 23.2876 44.0931 23.6017 43.7777L30.6008 36.7589C30.6008 36.7589 29.9277 35.6798 29.9277 34.1948C29.9277 30.9889 32.5196 28.3898 35.7159 28.3898C38.9124 28.3898 41.5034 30.9889 41.5034 34.1939ZM35.7159 36.2193C36.2502 36.2204 36.7629 36.0077 37.1415 35.628C37.52 35.2484 37.7333 34.7328 37.7346 34.1948C37.7341 33.9284 37.6815 33.6647 37.5798 33.4186C37.4781 33.1726 37.3292 32.9492 37.1418 32.7612C36.9543 32.5731 36.7319 32.424 36.4873 32.3225C36.2426 32.221 35.9806 32.169 35.7159 32.1694C35.4513 32.169 35.1893 32.221 34.9447 32.3225C34.6999 32.424 34.4776 32.5731 34.2901 32.7612C34.1027 32.9492 33.9539 33.1726 33.8522 33.4186C33.7505 33.6647 33.6978 33.9284 33.6974 34.1948C33.6987 34.7328 33.912 35.2484 34.2904 35.628C34.669 36.0077 35.1817 36.2204 35.7159 36.2193Z" fill="white"/>
  </g>
  <defs>
    <clipPath id="clip0_253_33894">
      <rect width="41.58" height="46.86" fill="white"/>
    </clipPath>
  </defs>
</svg>