<svg xmlns="http://www.w3.org/2000/svg" width="30" height="30" viewBox="0 0 30 30" fill="none">
  <path d="M22.0571 16.8413L16.5243 22.3741C13.8728 25.0256 9.57382 25.0256 6.92231 22.3741C4.2708 19.7226 4.2708 15.4236 6.92231 12.7721L14.37 5.32447C16.139 3.55545 19.0071 3.55545 20.7762 5.32447C22.5452 7.09349 22.5452 9.96164 20.7762 11.7307L13.0939 19.413C12.2627 20.2441 10.9152 20.2441 10.084 19.413C9.25286 18.5818 9.25286 17.2342 10.084 16.4031L15.8515 10.6356C16.1444 10.3427 16.1444 9.86784 15.8515 9.57495C15.5586 9.28205 15.0837 9.28206 14.7908 9.57495L9.02335 15.3424C7.60642 16.7594 7.60642 19.0567 9.02335 20.4736C10.4403 21.8906 12.7376 21.8906 14.1545 20.4736L21.8368 12.7913C24.1916 10.4365 24.1916 6.61862 21.8368 4.26381C19.482 1.909 15.6641 1.909 13.3093 4.26381L5.86165 11.7115C2.62435 14.9488 2.62435 20.1975 5.86165 23.4348C9.09895 26.6721 14.3477 26.6721 17.585 23.4348L23.1178 17.9019C23.4107 17.609 23.4107 17.1341 23.1178 16.8413C22.8249 16.5484 22.35 16.5484 22.0571 16.8413Z" fill="#A6A6A6"/>
</svg>