<svg xmlns="http://www.w3.org/2000/svg" width="26" height="24" viewBox="0 0 26 24" fill="none">
  <path d="M19.3961 24C19.098 24 18.8014 23.9085 18.5461 23.7263L12.5437 19.4216L6.54126 23.7263C6.29256 23.9052 5.9937 24.0009 5.68734 23.9999C5.38098 23.9988 5.08279 23.901 4.83534 23.7204C4.58766 23.5408 4.40293 23.2876 4.30742 22.997C4.2119 22.7064 4.21048 22.393 4.30335 22.1015L6.54199 14.8765L0.593429 10.6847C0.346899 10.5028 0.163812 10.2479 0.0700641 9.95623C-0.0236835 9.66453 -0.0233456 9.35073 0.0710301 9.05923C0.16615 8.76844 0.350253 8.51489 0.597317 8.33442C0.844382 8.15396 1.14191 8.0557 1.44786 8.05354L8.81532 8.04247L11.1609 0.99672C11.2577 0.706468 11.4434 0.454025 11.6916 0.275141C11.9399 0.0962577 12.2381 0 12.5441 0C12.85 0 13.1482 0.0962577 13.3965 0.275141C13.6447 0.454025 13.8304 0.706468 13.9272 0.99672L16.2329 8.04247L23.638 8.05354C23.9443 8.05527 24.2423 8.15347 24.4896 8.33421C24.7369 8.51495 24.921 8.76902 25.0157 9.06034C25.1104 9.35165 25.1109 9.6654 25.0171 9.957C24.9233 10.2486 24.74 10.5032 24.4932 10.6847L18.5446 14.8765L20.7833 22.1015C20.8763 22.3929 20.8751 22.7063 20.7797 22.9969C20.6843 23.2876 20.4997 23.5407 20.252 23.7204C20.0038 23.9024 19.7039 24.0004 19.3961 24Z" fill="#363636"/>
</svg>