<svg width="21" height="18" viewBox="0 0 21 18" fill="none" xmlns="http://www.w3.org/2000/svg">
<path d="M19.2096 0.154495C19.2096 0.154495 21.1523 -0.603005 20.9904 1.23664C20.9364 1.99415 20.4508 4.6454 20.073 7.5131L18.7779 16.0079C18.7779 16.0079 18.67 17.2524 17.6987 17.4688C16.7273 17.6852 15.2704 16.7113 15.0005 16.4949C14.7847 16.3326 10.9534 13.8977 9.6043 12.7074C9.22655 12.3827 8.79485 11.7334 9.65825 10.9759L15.3243 5.56525C15.9719 4.91595 16.6194 3.40095 13.9213 5.2406L6.36655 10.3808C6.36655 10.3808 5.50315 10.9218 3.8843 10.4349L0.37671 9.35275C0.37671 9.35275 -0.918395 8.54115 1.29408 7.7295C6.69035 5.18645 13.3277 2.5893 19.2096 0.154495Z" fill="white"/>
</svg>
