<svg xmlns="http://www.w3.org/2000/svg" width="16" height="14" viewBox="0 0 16 14" fill="none">
  <g opacity="0.8">
    <path d="M9.66699 2.02136C9.92762 1.69962 10.3998 1.64964 10.7217 1.91003C11.0434 2.17066 11.0934 2.64286 10.833 2.96472L4.35254 10.9647C4.21908 11.1295 4.02227 11.2306 3.81055 11.2421C3.59876 11.2535 3.39169 11.1747 3.24121 11.0253L0.22168 8.02527C-0.0721006 7.73341 -0.0739455 7.25859 0.217773 6.96472C0.509627 6.67095 0.984448 6.66911 1.27832 6.96082L3.70996 9.37585L9.66699 2.02136ZM14.6846 1.99988C14.9569 1.68784 15.4311 1.65543 15.7432 1.92761C16.0552 2.19989 16.0876 2.67409 15.8154 2.98621L8.83496 10.9862C8.69922 11.1417 8.50511 11.234 8.29883 11.2421C8.09259 11.25 7.89249 11.1727 7.74512 11.0282L6.72461 10.0282C6.42922 9.73817 6.42497 9.26329 6.71484 8.96765C7.00486 8.67227 7.47975 8.66804 7.77539 8.95789L8.22656 9.40027L14.6846 1.99988Z" fill="white"/>
  </g>
</svg>