<svg xmlns="http://www.w3.org/2000/svg" width="60" height="60" viewBox="0 0 60 60" fill="none">
  <path d="M30 0C42.9737 0 49.4609 0.000465091 53.8789 3.50684C54.8474 4.27551 55.7245 5.15264 56.4932 6.12109C59.9995 10.5391 60 17.0263 60 30C60 42.9737 59.9995 49.4609 56.4932 53.8789C55.7245 54.8474 54.8474 55.7245 53.8789 56.4932C49.4609 59.9995 42.9737 60 30 60C17.0263 60 10.5391 59.9995 6.12109 56.4932C5.15264 55.7245 4.27551 54.8474 3.50684 53.8789C0.000465091 49.4609 0 42.9737 0 30C0 17.0263 0.000465091 10.5391 3.50684 6.12109C4.27551 5.15264 5.15264 4.27551 6.12109 3.50684C10.5391 0.000465091 17.0263 0 30 0ZM12.127 20.8936C11.4821 20.521 10.9591 20.8226 10.959 21.5674L10.96 40.3877C10.9602 41.1326 11.4822 42.0386 12.127 42.4111L28.418 51.8213C29.0629 52.1938 29.5859 51.8915 29.5859 51.1465L29.585 32.3271C29.5848 31.5822 29.062 30.6762 28.417 30.3037L12.127 20.8936ZM49.7158 21.5674C49.7157 20.8226 49.1926 20.521 48.5479 20.8936L32.2578 30.3037C31.6128 30.6762 31.09 31.5822 31.0898 32.3271L31.0889 51.1465C31.0889 51.8915 31.6119 52.1938 32.2568 51.8213L48.5469 42.4111C49.1918 42.0387 49.7146 41.1326 49.7148 40.3877L49.7158 21.5674ZM25.4111 46.125C25.4111 45.7338 25.6858 45.5749 26.0244 45.7705L27.4717 46.6074C27.8103 46.803 28.0848 47.2788 28.085 47.6699V49.3428C28.0848 49.7336 27.8102 49.8918 27.4717 49.6963L26.0244 48.8604C25.6858 48.6648 25.4113 48.189 25.4111 47.7979V46.125ZM34.5166 45.6934C34.855 45.4978 35.1297 45.6559 35.1299 46.0469V47.7197C35.1299 48.1108 34.855 48.5865 34.5166 48.7822L33.0684 49.6191C32.7297 49.8147 32.4551 49.6557 32.4551 49.2646V47.5918C32.4552 47.2006 32.7298 46.7249 33.0684 46.5293L34.5166 45.6934ZM18.9355 42.3838C18.9357 41.993 19.2103 41.8347 19.5488 42.0303L20.9961 42.8662C21.3346 43.0618 21.6092 43.5376 21.6094 43.9287V45.6016C21.6094 45.9926 21.3356 46.1514 20.9971 45.9561L19.5488 45.1191C19.2102 44.9235 18.9355 44.4478 18.9355 44.0566V42.3838ZM41.126 41.875C41.4646 41.6794 41.7393 41.8384 41.7393 42.2295V43.9023C41.7391 44.2933 41.4644 44.7683 41.126 44.9639L39.6777 45.8008C39.3392 45.9962 39.0645 45.8374 39.0645 45.4463V43.7734C39.0646 43.3825 39.3394 42.9076 39.6777 42.7119L41.126 41.875ZM12.46 38.6436C12.46 38.2525 12.7347 38.0936 13.0732 38.2891L14.5215 39.126C14.86 39.3217 15.1348 39.7974 15.1348 40.1885V41.8613C15.1348 42.2523 14.8599 42.4111 14.5215 42.2158L13.0732 41.3789C12.7346 41.1833 12.46 40.7076 12.46 40.3164V38.6436ZM34.5166 38.2129C34.8552 38.0173 35.1298 38.1753 35.1299 38.5664V40.2393C35.1298 40.6304 34.8552 41.1061 34.5166 41.3018L33.0684 42.1387C32.7299 42.334 32.455 42.1753 32.4551 41.7842V40.1113C32.4551 39.7202 32.7298 39.2445 33.0684 39.0488L34.5166 38.2129ZM25.4102 38.4893C25.4102 38.0982 25.6849 37.9394 26.0234 38.1348L27.4717 38.9717C27.8102 39.1673 28.085 39.643 28.085 40.0342V41.707C28.0848 42.098 27.8101 42.2561 27.4717 42.0605L26.0234 41.2246C25.6849 41.029 25.4113 40.5532 25.4111 40.1621L25.4102 38.4893ZM16.8154 31.0752C16.8156 30.6843 17.0903 30.5261 17.4287 30.7217L23.1162 34.0068C23.4547 34.2026 23.7285 34.6783 23.7285 35.0693L23.7295 41.6387C23.7295 42.0298 23.4547 42.1887 23.1162 41.9932L17.4287 38.708C17.0901 38.5124 16.8154 38.0365 16.8154 37.6455V31.0752ZM43.2461 30.7217C43.5845 30.5261 43.8592 30.6843 43.8594 31.0752V37.6455C43.8594 38.0365 43.5846 38.5123 43.2461 38.708L37.5586 41.9932C37.22 42.1888 36.9453 42.0299 36.9453 41.6387V35.0693C36.9453 34.6783 37.2201 34.2025 37.5586 34.0068L43.2461 30.7217ZM47.7363 38.0566C48.0748 37.8614 48.3486 38.0201 48.3486 38.4111V40.084C48.3485 40.4751 48.0739 40.9509 47.7354 41.1465L46.2881 41.9824C45.9496 42.178 45.6749 42.0198 45.6748 41.6289V39.9561C45.6748 39.565 45.9496 39.0892 46.2881 38.8936L47.7363 38.0566ZM34.5166 30.7314C34.8551 30.5359 35.1299 30.6949 35.1299 31.0859V32.7588C35.1299 33.15 34.8551 33.6257 34.5166 33.8213L33.0684 34.6572C32.7298 34.8527 32.4561 34.6948 32.4561 34.3037V32.6309C32.4561 32.2397 32.7307 31.764 33.0693 31.5684L34.5166 30.7314ZM12.46 31.0078C12.46 30.6167 12.7347 30.4577 13.0732 30.6533L14.5205 31.4902C14.859 31.6858 15.1338 32.1617 15.1338 32.5527V34.2256C15.1338 34.6165 14.8598 34.7752 14.5215 34.5801L13.0732 33.7432C12.7346 33.5476 12.46 33.0719 12.46 32.6807V31.0078ZM47.7363 30.5762C48.0749 30.3807 48.3497 30.5395 48.3496 30.9307V32.6035C48.3495 32.9946 48.0748 33.4704 47.7363 33.666L46.2881 34.502C45.9496 34.6975 45.675 34.5392 45.6748 34.1484V32.4746C45.6751 32.0837 45.9496 31.6087 46.2881 31.4131L47.7363 30.5762ZM25.4102 30.8535C25.41 30.4625 25.6848 30.3035 26.0234 30.499L27.4717 31.3359C27.8102 31.5317 28.0848 32.0074 28.085 32.3984V34.0713C28.0848 34.4622 27.8102 34.6203 27.4717 34.4248L26.0234 33.5889C25.6849 33.3933 25.4103 32.9174 25.4102 32.5264V30.8535ZM41.127 26.9141C41.4655 26.7186 41.7391 26.8767 41.7393 27.2676V28.9404C41.7393 29.3315 41.4654 29.8072 41.127 30.0029L39.6787 30.8398C39.3401 31.0354 39.0654 30.8765 39.0654 30.4854V28.8125C39.0655 28.4213 39.3401 27.9456 39.6787 27.75L41.127 26.9141ZM18.9346 27.1123C18.9348 26.7214 19.2093 26.5633 19.5479 26.7588L20.9961 27.5947C21.3347 27.7903 21.6093 28.2662 21.6094 28.6572V30.3301C21.6094 30.7211 21.3347 30.8801 20.9961 30.6846L19.5479 29.8477C19.2094 29.6521 18.9346 29.1762 18.9346 28.7852V27.1123ZM31.5049 8.96191C30.86 8.58946 29.8148 8.58949 29.1699 8.96191L12.8779 18.3711C12.2332 18.7436 12.2331 19.3473 12.8779 19.7197L29.1699 29.1289C29.8148 29.5012 30.8601 29.5012 31.5049 29.1289L47.7969 19.7197C48.4416 19.3473 48.4415 18.7436 47.7969 18.3711L31.5049 8.96191ZM29.8584 25.4121C30.197 25.2166 30.7463 25.2166 31.085 25.4121L32.5332 26.249C32.8714 26.4446 32.8715 26.7615 32.5332 26.957L31.085 27.793C30.7463 27.9885 30.197 27.9885 29.8584 27.793L28.4102 26.957C28.0719 26.7615 28.0719 26.4446 28.4102 26.249L29.8584 25.4121ZM47.7363 23.0957C48.075 22.9001 48.3496 23.059 48.3496 23.4502V25.123C48.3494 25.5141 48.0747 25.989 47.7363 26.1846L46.2881 27.0215C45.9496 27.217 45.6748 27.058 45.6748 26.667V24.9941C45.675 24.603 45.9497 24.1272 46.2881 23.9316L47.7363 23.0957ZM12.459 23.3721C12.459 22.9809 12.7337 22.823 13.0723 23.0186L14.5205 23.8545C14.8591 24.0501 15.1338 24.5258 15.1338 24.917V26.5898C15.1338 26.981 14.8591 27.1399 14.5205 26.9443L13.0723 26.1074C12.7338 25.9117 12.46 25.436 12.46 25.0449L12.459 23.3721ZM36.334 21.6729C36.6725 21.4773 37.2219 21.4773 37.5605 21.6729L39.0088 22.5088C39.3472 22.7042 39.3471 23.0212 39.0088 23.2168L37.5605 24.0537C37.2219 24.2492 36.6725 24.2493 36.334 24.0537L34.8857 23.2168C34.5476 23.0212 34.5475 22.7042 34.8857 22.5088L36.334 21.6729ZM23.248 21.5947C23.5866 21.3992 24.136 21.3992 24.4746 21.5947L25.9229 22.4316C26.2613 22.6271 26.2614 22.9441 25.9229 23.1396L24.4746 23.9756C24.136 24.1711 23.5867 24.1712 23.248 23.9756L21.8008 23.1396C21.4621 22.9441 21.4621 22.6271 21.8008 22.4316L23.248 21.5947ZM29.7246 15.4062C30.0631 15.2109 30.6117 15.2108 30.9502 15.4062L36.6377 18.6914C36.9762 18.887 36.9762 19.2038 36.6377 19.3994L30.9502 22.6846C30.6118 22.8799 30.063 22.8798 29.7246 22.6846L24.0371 19.3994C23.6986 19.2038 23.6986 18.887 24.0371 18.6914L29.7246 15.4062ZM42.8096 17.9326C43.1482 17.737 43.6975 17.737 44.0361 17.9326L45.4844 18.7686C45.823 18.9641 45.8228 19.2811 45.4844 19.4766L44.0361 20.3135C43.6975 20.509 43.1482 20.509 42.8096 20.3135L41.3623 19.4766C41.0237 19.2811 41.0237 18.9642 41.3623 18.7686L42.8096 17.9326ZM16.6387 17.7773C16.9773 17.5818 17.5266 17.5818 17.8652 17.7773L19.3125 18.6133C19.6511 18.8088 19.6511 19.1267 19.3125 19.3223L17.8652 20.1582C17.5266 20.3538 16.9773 20.3537 16.6387 20.1582L15.1904 19.3223C14.8518 19.1267 14.8518 18.8088 15.1904 18.6133L16.6387 17.7773ZM36.2002 14.1152C36.5388 13.9197 37.0871 13.9197 37.4258 14.1152L38.874 14.9512C39.2127 15.1468 39.2127 15.4636 38.874 15.6592L37.4258 16.4961C37.0872 16.6913 36.5387 16.6914 36.2002 16.4961L34.752 15.6592C34.4133 15.4636 34.4133 15.1468 34.752 14.9512L36.2002 14.1152ZM23.1143 14.0371C23.4529 13.8416 24.0023 13.8415 24.3408 14.0371L25.7881 14.873C26.1267 15.0686 26.1267 15.3865 25.7881 15.582L24.3408 16.418C24.0023 16.6136 23.4529 16.6136 23.1143 16.418L21.666 15.582C21.3275 15.3865 21.3275 15.0686 21.666 14.873L23.1143 14.0371ZM29.5898 10.2969C29.9285 10.1013 30.4778 10.1013 30.8164 10.2969L32.2646 11.1338C32.6027 11.3293 32.6029 11.6463 32.2646 11.8418L30.8164 12.6777C30.4778 12.8733 29.9285 12.8733 29.5898 12.6777L28.1416 11.8418C27.8032 11.6463 27.8033 11.3294 28.1416 11.1338L29.5898 10.2969Z" fill="white"/>
</svg>